<mxfile host="app.diagrams.net" modified="2023-05-11T13:46:29.724Z" agent="Mozilla/5.0 (Windows NT 10.0; Win64; x64) AppleWebKit/537.36 (KHTML, like Gecko) Chrome/103.0.0.0 Safari/537.36" version="21.2.9" etag="kOtHnSef0DgNa_KDMpSc" type="github">
  <diagram name="第 1 页" id="JUjPR3UIei4cRIlXoMbE">
    <mxGraphModel>
      <root>
        <mxCell id="0" />
        <mxCell id="1" parent="0" />
      </root>
    </mxGraphModel>
  </diagram>
</mxfile>
